<svg width="67" height="62" viewBox="0 0 67 62" fill="none" xmlns="http://www.w3.org/2000/svg">
<rect width="67" height="62" rx="6" fill="#ED5A8D" fill-opacity="0.2"/>
<path d="M45.4345 28.6667C45.9673 31.2815 45.5876 34 44.3587 36.3687C43.1297 38.7375 41.1259 40.6134 38.6813 41.6835C36.2367 42.7537 33.4991 42.9534 30.925 42.2494C28.351 41.5454 26.0961 39.9803 24.5363 37.815C22.9766 35.6497 22.2063 33.0151 22.3539 30.3506C22.5016 27.6861 23.5582 25.1528 25.3476 23.173C27.137 21.1933 29.551 19.8868 32.1871 19.4715C34.8231 19.0562 37.5219 19.5572 39.8333 20.8908" stroke="#EA5D89" stroke-width="2" stroke-linecap="round" stroke-linejoin="round"/>
<path d="M30.5 29.8333L34 33.3333L45.6667 21.6666" stroke="#EA5D89" stroke-width="2" stroke-linecap="round" stroke-linejoin="round"/>
</svg>
