<svg width="58" height="54" viewBox="0 0 58 54" fill="none" xmlns="http://www.w3.org/2000/svg">
<rect width="58" height="54" rx="12" fill="black"/>
<path d="M33.6667 37.5V35.1667C33.6667 33.929 33.175 32.742 32.2999 31.8668C31.4247 30.9917 30.2377 30.5 29 30.5H22C20.7624 30.5 19.5754 30.9917 18.7002 31.8668C17.825 32.742 17.3334 33.929 17.3334 35.1667V37.5" stroke="white" stroke-width="2" stroke-linecap="round" stroke-linejoin="round"/>
<path d="M25.5 25.8333C28.0774 25.8333 30.1667 23.744 30.1667 21.1667C30.1667 18.5893 28.0774 16.5 25.5 16.5C22.9227 16.5 20.8334 18.5893 20.8334 21.1667C20.8334 23.744 22.9227 25.8333 25.5 25.8333Z" stroke="white" stroke-width="2" stroke-linecap="round" stroke-linejoin="round"/>
<path d="M40.6666 37.4999V35.1666C40.6659 34.1326 40.3217 33.1282 39.6882 32.311C39.0547 31.4938 38.1678 30.9101 37.1666 30.6516" stroke="white" stroke-width="2" stroke-linecap="round" stroke-linejoin="round"/>
<path d="M33.6666 16.6516C34.6704 16.9086 35.5602 17.4924 36.1955 18.311C36.8309 19.1295 37.1758 20.1362 37.1758 21.1724C37.1758 22.2086 36.8309 23.2154 36.1955 24.0339C35.5602 24.8525 34.6704 25.4363 33.6666 25.6933" stroke="white" stroke-width="2" stroke-linecap="round" stroke-linejoin="round"/>
</svg>
