<svg width="58" height="54" viewBox="0 0 58 54" fill="none" xmlns="http://www.w3.org/2000/svg">
<rect width="58" height="54" rx="12" fill="#C3BEFF"/>
<path d="M27.8333 38.3516C28.188 38.5564 28.5904 38.6642 29 38.6642C29.4096 38.6642 29.812 38.5564 30.1667 38.3516L38.3333 33.685C38.6877 33.4804 38.982 33.1862 39.1868 32.8319C39.3916 32.4777 39.4996 32.0758 39.5 31.6666V22.3333C39.4996 21.9241 39.3916 21.5222 39.1868 21.168C38.982 20.8137 38.6877 20.5196 38.3333 20.315L30.1667 15.6483C29.812 15.4435 29.4096 15.3357 29 15.3357C28.5904 15.3357 28.188 15.4435 27.8333 15.6483L19.6667 20.315C19.3123 20.5196 19.018 20.8137 18.8132 21.168C18.6084 21.5222 18.5004 21.9241 18.5 22.3333V31.6666C18.5004 32.0758 18.6084 32.4777 18.8132 32.8319C19.018 33.1862 19.3123 33.4804 19.6667 33.685L27.8333 38.3516Z" stroke="white" stroke-width="2" stroke-linecap="round" stroke-linejoin="round"/>
<path d="M29 38.6667V27" stroke="white" stroke-width="2" stroke-linecap="round" stroke-linejoin="round"/>
<path d="M18.85 21.1666L27.8368 26.6896C28.1907 26.8931 28.5918 27.0002 29 27.0002C29.4082 27.0002 29.8093 26.8931 30.1632 26.6896L39.15 21.1666" stroke="white" stroke-width="2" stroke-linecap="round" stroke-linejoin="round"/>
<path d="M23.75 17.9817L34.25 23.99" stroke="white" stroke-width="2" stroke-linecap="round" stroke-linejoin="round"/>
</svg>
