<svg width="58" height="54" viewBox="0 0 58 54" fill="none" xmlns="http://www.w3.org/2000/svg">
<rect width="58" height="54" rx="12" fill="#EA5D89"/>
<path d="M24.3333 38.6667C24.9777 38.6667 25.5 38.1444 25.5 37.5C25.5 36.8557 24.9777 36.3334 24.3333 36.3334C23.689 36.3334 23.1667 36.8557 23.1667 37.5C23.1667 38.1444 23.689 38.6667 24.3333 38.6667Z" stroke="white" stroke-width="2" stroke-linecap="round" stroke-linejoin="round"/>
<path d="M37.1667 38.6667C37.811 38.6667 38.3333 38.1444 38.3333 37.5C38.3333 36.8557 37.811 36.3334 37.1667 36.3334C36.5223 36.3334 36 36.8557 36 37.5C36 38.1444 36.5223 38.6667 37.1667 38.6667Z" stroke="white" stroke-width="2" stroke-linecap="round" stroke-linejoin="round"/>
<path d="M17.3917 15.3917H19.725L22.8283 29.8817C22.9422 30.4124 23.2374 30.8868 23.6633 31.2232C24.0892 31.5597 24.6191 31.7371 25.1617 31.7251H36.5717C37.1027 31.7242 37.6176 31.5422 38.0312 31.2092C38.4448 30.8762 38.7325 30.412 38.8467 29.8934L40.7717 21.2251H20.9733" stroke="white" stroke-width="2" stroke-linecap="round" stroke-linejoin="round"/>
</svg>
