<svg width="67" height="62" viewBox="0 0 67 62" fill="none" xmlns="http://www.w3.org/2000/svg">
<rect width="67" height="62" rx="6" fill="#ED5A8D" fill-opacity="0.2"/>
<path d="M36.3333 38V24C36.3333 23.3811 36.0875 22.7876 35.6499 22.35C35.2123 21.9125 34.6188 21.6666 34 21.6666H24.6666C24.0478 21.6666 23.4543 21.9125 23.0167 22.35C22.5791 22.7876 22.3333 23.3811 22.3333 24V36.8333C22.3333 37.1427 22.4562 37.4395 22.675 37.6583C22.8938 37.877 23.1906 38 23.5 38H25.8333" stroke="#EA5D89" stroke-width="2" stroke-linecap="round" stroke-linejoin="round"/>
<path d="M37.5 38H30.5" stroke="#EA5D89" stroke-width="2" stroke-linecap="round" stroke-linejoin="round"/>
<path d="M42.1666 38H44.5C44.8094 38 45.1061 37.8771 45.3249 37.6583C45.5437 37.4395 45.6666 37.1428 45.6666 36.8334V32.575C45.6662 32.3103 45.5757 32.0536 45.41 31.847L41.35 26.772C41.2409 26.6354 41.1024 26.525 40.9449 26.4491C40.7874 26.3732 40.6148 26.3336 40.44 26.3334H36.3333" stroke="#EA5D89" stroke-width="2" stroke-linecap="round" stroke-linejoin="round"/>
<path d="M39.8333 40.3333C41.122 40.3333 42.1667 39.2886 42.1667 38C42.1667 36.7113 41.122 35.6666 39.8333 35.6666C38.5447 35.6666 37.5 36.7113 37.5 38C37.5 39.2886 38.5447 40.3333 39.8333 40.3333Z" stroke="#EA5D89" stroke-width="2" stroke-linecap="round" stroke-linejoin="round"/>
<path d="M28.1666 40.3333C29.4553 40.3333 30.5 39.2886 30.5 38C30.5 36.7113 29.4553 35.6666 28.1666 35.6666C26.878 35.6666 25.8333 36.7113 25.8333 38C25.8333 39.2886 26.878 40.3333 28.1666 40.3333Z" stroke="#EA5D89" stroke-width="2" stroke-linecap="round" stroke-linejoin="round"/>
</svg>
