<svg width="67" height="62" viewBox="0 0 67 62" fill="none" xmlns="http://www.w3.org/2000/svg">
<rect width="67" height="62" rx="6" fill="#E0DDFF"/>
<path d="M38.6667 35.6667L41 38L45.6667 33.3334" stroke="black" stroke-width="2" stroke-linecap="round" stroke-linejoin="round"/>
<path d="M44.5 28.6666V26.3333C44.4996 25.9241 44.3916 25.5222 44.1868 25.168C43.982 24.8137 43.6877 24.5196 43.3333 24.315L35.1667 19.6483C34.812 19.4435 34.4096 19.3357 34 19.3357C33.5904 19.3357 33.188 19.4435 32.8333 19.6483L24.6667 24.315C24.3123 24.5196 24.018 24.8137 23.8132 25.168C23.6084 25.5222 23.5004 25.9241 23.5 26.3333V35.6666C23.5004 36.0758 23.6084 36.4777 23.8132 36.8319C24.018 37.1862 24.3123 37.4804 24.6667 37.685L32.8333 42.3516C33.188 42.5564 33.5904 42.6642 34 42.6642C34.4096 42.6642 34.812 42.5564 35.1667 42.3516L37.5 41.0216" stroke="black" stroke-width="2" stroke-linecap="round" stroke-linejoin="round"/>
<path d="M28.75 21.9817L39.25 27.99" stroke="black" stroke-width="2" stroke-linecap="round" stroke-linejoin="round"/>
<path d="M23.8383 25.1666L34 31L44.1617 25.1666" stroke="black" stroke-width="2" stroke-linecap="round" stroke-linejoin="round"/>
<path d="M34 42.6667V31" stroke="black" stroke-width="2" stroke-linecap="round" stroke-linejoin="round"/>
</svg>
