<svg width="58" height="54" viewBox="0 0 58 54" fill="none" xmlns="http://www.w3.org/2000/svg">
<rect width="58" height="54" rx="12" fill="#64BC64"/>
<path d="M17.3333 21.1667L22.4783 16.0217C22.6954 15.8033 22.9535 15.6301 23.2379 15.512C23.5222 15.3938 23.8271 15.3331 24.135 15.3334H33.865C34.1729 15.3331 34.4778 15.3938 34.7621 15.512C35.0464 15.6301 35.3046 15.8033 35.5216 16.0217L40.6666 21.1667" stroke="white" stroke-width="2" stroke-linecap="round" stroke-linejoin="round"/>
<path d="M19.6667 27V36.3333C19.6667 36.9522 19.9125 37.5457 20.3501 37.9832C20.7877 38.4208 21.3812 38.6667 22 38.6667H36C36.6189 38.6667 37.2124 38.4208 37.6499 37.9832C38.0875 37.5457 38.3334 36.9522 38.3334 36.3333V27" stroke="white" stroke-width="2" stroke-linecap="round" stroke-linejoin="round"/>
<path d="M32.5 38.6666V34C32.5 33.3811 32.2542 32.7876 31.8166 32.35C31.379 31.9125 30.7855 31.6666 30.1667 31.6666H27.8333C27.2145 31.6666 26.621 31.9125 26.1834 32.35C25.7458 32.7876 25.5 33.3811 25.5 34V38.6666" stroke="white" stroke-width="2" stroke-linecap="round" stroke-linejoin="round"/>
<path d="M17.3333 21.1666H40.6666" stroke="white" stroke-width="2" stroke-linecap="round" stroke-linejoin="round"/>
<path d="M40.6666 21.1666V24.6666C40.6666 25.2855 40.4208 25.879 39.9832 26.3165C39.5456 26.7541 38.9522 27 38.3333 27C37.6517 26.9624 37.0007 26.7045 36.4783 26.265C36.3391 26.1644 36.1717 26.1102 36 26.1102C35.8282 26.1102 35.6609 26.1644 35.5216 26.265C34.9993 26.7045 34.3483 26.9624 33.6666 27C32.985 26.9624 32.334 26.7045 31.8116 26.265C31.6724 26.1644 31.5051 26.1102 31.3333 26.1102C31.1616 26.1102 30.9942 26.1644 30.855 26.265C30.3326 26.7045 29.6816 26.9624 29 27C28.3183 26.9624 27.6673 26.7045 27.145 26.265C27.0058 26.1644 26.8384 26.1102 26.6666 26.1102C26.4949 26.1102 26.3275 26.1644 26.1883 26.265C25.666 26.7045 25.015 26.9624 24.3333 27C23.6517 26.9624 23.0007 26.7045 22.4783 26.265C22.3391 26.1644 22.1717 26.1102 22 26.1102C21.8282 26.1102 21.6609 26.1644 21.5216 26.265C20.9993 26.7045 20.3483 26.9624 19.6666 27C19.0478 27 18.4543 26.7541 18.0167 26.3165C17.5791 25.879 17.3333 25.2855 17.3333 24.6666V21.1666" stroke="white" stroke-width="2" stroke-linecap="round" stroke-linejoin="round"/>
</svg>
