<svg width="22" height="22" viewBox="0 0 22 22" fill="none" xmlns="http://www.w3.org/2000/svg">
<path d="M12.8333 16.5V5.49996C12.8333 5.01373 12.6402 4.54741 12.2964 4.2036C11.9526 3.85978 11.4862 3.66663 11 3.66663H3.66668C3.18045 3.66663 2.71413 3.85978 2.37031 4.2036C2.0265 4.54741 1.83334 5.01373 1.83334 5.49996V15.5833C1.83334 15.8264 1.92992 16.0596 2.10183 16.2315C2.27374 16.4034 2.5069 16.5 2.75001 16.5H4.58334" stroke="black" stroke-width="2" stroke-linecap="round" stroke-linejoin="round"/>
<path d="M13.75 16.5H8.25" stroke="black" stroke-width="2" stroke-linecap="round" stroke-linejoin="round"/>
<path d="M17.4167 16.5H19.25C19.4931 16.5 19.7263 16.4035 19.8982 16.2316C20.0701 16.0596 20.1667 15.8265 20.1667 15.5834V12.2375C20.1663 12.0295 20.0952 11.8278 19.965 11.6655L16.775 7.67804C16.6893 7.57068 16.5805 7.48397 16.4567 7.42431C16.333 7.36465 16.1974 7.33357 16.06 7.33337H12.8333" stroke="black" stroke-width="2" stroke-linecap="round" stroke-linejoin="round"/>
<path d="M15.5833 18.3333C16.5959 18.3333 17.4167 17.5125 17.4167 16.5C17.4167 15.4874 16.5959 14.6666 15.5833 14.6666C14.5708 14.6666 13.75 15.4874 13.75 16.5C13.75 17.5125 14.5708 18.3333 15.5833 18.3333Z" stroke="black" stroke-width="2" stroke-linecap="round" stroke-linejoin="round"/>
<path d="M6.41668 18.3333C7.4292 18.3333 8.25001 17.5125 8.25001 16.5C8.25001 15.4874 7.4292 14.6666 6.41668 14.6666C5.40415 14.6666 4.58334 15.4874 4.58334 16.5C4.58334 17.5125 5.40415 18.3333 6.41668 18.3333Z" stroke="black" stroke-width="2" stroke-linecap="round" stroke-linejoin="round"/>
</svg>
