<svg width="22" height="22" viewBox="0 0 22 22" fill="none" xmlns="http://www.w3.org/2000/svg">
<path d="M11.2017 1.83337H10.7983C10.3121 1.83337 9.84579 2.02653 9.50197 2.37034C9.15816 2.71416 8.965 3.18048 8.965 3.66671V3.83171C8.96467 4.15321 8.8798 4.46896 8.71891 4.74731C8.55802 5.02565 8.32676 5.25679 8.04833 5.41754L7.65417 5.64671C7.37547 5.80762 7.05932 5.89233 6.7375 5.89233C6.41568 5.89233 6.09954 5.80762 5.82084 5.64671L5.68333 5.57337C5.26264 5.3307 4.76285 5.26486 4.29367 5.39032C3.82449 5.51578 3.42426 5.82228 3.18084 6.24254L2.97917 6.59087C2.73649 7.01156 2.67066 7.51136 2.79612 7.98054C2.92158 8.44972 3.22808 8.84995 3.64834 9.09337L3.78584 9.18504C4.06292 9.34501 4.29332 9.57471 4.45413 9.8513C4.61494 10.1279 4.70057 10.4418 4.7025 10.7617V11.2292C4.70378 11.5523 4.61968 11.8699 4.45871 12.15C4.29774 12.4301 4.06561 12.6627 3.78584 12.8242L3.64834 12.9067C3.22808 13.1501 2.92158 13.5504 2.79612 14.0195C2.67066 14.4887 2.73649 14.9885 2.97917 15.4092L3.18084 15.7575C3.42426 16.1778 3.82449 16.4843 4.29367 16.6098C4.76285 16.7352 5.26264 16.6694 5.68333 16.4267L5.82084 16.3534C6.09954 16.1925 6.41568 16.1078 6.7375 16.1078C7.05932 16.1078 7.37547 16.1925 7.65417 16.3534L8.04833 16.5825C8.32676 16.7433 8.55802 16.9744 8.71891 17.2528C8.8798 17.5311 8.96467 17.8469 8.965 18.1684V18.3334C8.965 18.8196 9.15816 19.2859 9.50197 19.6297C9.84579 19.9736 10.3121 20.1667 10.7983 20.1667H11.2017C11.6879 20.1667 12.1542 19.9736 12.498 19.6297C12.8418 19.2859 13.035 18.8196 13.035 18.3334V18.1684C13.0353 17.8469 13.1202 17.5311 13.2811 17.2528C13.442 16.9744 13.6732 16.7433 13.9517 16.5825L14.3458 16.3534C14.6245 16.1925 14.9407 16.1078 15.2625 16.1078C15.5843 16.1078 15.9005 16.1925 16.1792 16.3534L16.3167 16.4267C16.7374 16.6694 17.2372 16.7352 17.7063 16.6098C18.1755 16.4843 18.5757 16.1778 18.8192 15.7575L19.0208 15.4C19.2635 14.9793 19.3293 14.4796 19.2039 14.0104C19.0784 13.5412 18.7719 13.141 18.3517 12.8975L18.2142 12.8242C17.9344 12.6627 17.7023 12.4301 17.5413 12.15C17.3803 11.8699 17.2962 11.5523 17.2975 11.2292V10.7709C17.2962 10.4478 17.3803 10.1302 17.5413 9.85008C17.7023 9.56998 17.9344 9.3374 18.2142 9.17587L18.3517 9.09337C18.7719 8.84995 19.0784 8.44972 19.2039 7.98054C19.3293 7.51136 19.2635 7.01156 19.0208 6.59087L18.8192 6.24254C18.5757 5.82228 18.1755 5.51578 17.7063 5.39032C17.2372 5.26486 16.7374 5.3307 16.3167 5.57337L16.1792 5.64671C15.9005 5.80762 15.5843 5.89233 15.2625 5.89233C14.9407 5.89233 14.6245 5.80762 14.3458 5.64671L13.9517 5.41754C13.6732 5.25679 13.442 5.02565 13.2811 4.74731C13.1202 4.46896 13.0353 4.15321 13.035 3.83171V3.66671C13.035 3.18048 12.8418 2.71416 12.498 2.37034C12.1542 2.02653 11.6879 1.83337 11.2017 1.83337Z" stroke="black" stroke-width="2" stroke-linecap="round" stroke-linejoin="round"/>
<path d="M11 13.75C12.5188 13.75 13.75 12.5188 13.75 11C13.75 9.48122 12.5188 8.25 11 8.25C9.48122 8.25 8.25 9.48122 8.25 11C8.25 12.5188 9.48122 13.75 11 13.75Z" stroke="black" stroke-width="2" stroke-linecap="round" stroke-linejoin="round"/>
</svg>
