<svg width="22" height="22" viewBox="0 0 22 22" fill="none" xmlns="http://www.w3.org/2000/svg">
<path d="M13.75 1.83337H5.50001C5.01377 1.83337 4.54746 2.02653 4.20364 2.37034C3.85983 2.71416 3.66667 3.18048 3.66667 3.66671V18.3334C3.66667 18.8196 3.85983 19.2859 4.20364 19.6297C4.54746 19.9736 5.01377 20.1667 5.50001 20.1667H16.5C16.9862 20.1667 17.4526 19.9736 17.7964 19.6297C18.1402 19.2859 18.3333 18.8196 18.3333 18.3334V6.41671L13.75 1.83337Z" stroke="black" stroke-width="2" stroke-linecap="round" stroke-linejoin="round"/>
<path d="M12.8333 1.83337V5.50004C12.8333 5.98627 13.0265 6.45259 13.3703 6.7964C13.7141 7.14022 14.1804 7.33337 14.6667 7.33337H18.3333" stroke="black" stroke-width="2" stroke-linecap="round" stroke-linejoin="round"/>
<path d="M9.16666 8.25H7.33333" stroke="black" stroke-width="2" stroke-linecap="round" stroke-linejoin="round"/>
<path d="M14.6667 11.9166H7.33333" stroke="black" stroke-width="2" stroke-linecap="round" stroke-linejoin="round"/>
<path d="M14.6667 15.5834H7.33333" stroke="black" stroke-width="2" stroke-linecap="round" stroke-linejoin="round"/>
</svg>
