<svg width="22" height="22" viewBox="0 0 22 22" fill="none" xmlns="http://www.w3.org/2000/svg">
<path d="M14.6667 19.25V17.4167C14.6667 16.4442 14.2804 15.5116 13.5927 14.8239C12.9051 14.1363 11.9725 13.75 11 13.75H5.50001C4.52755 13.75 3.59492 14.1363 2.90729 14.8239C2.21965 15.5116 1.83334 16.4442 1.83334 17.4167V19.25" stroke="black" stroke-width="2" stroke-linecap="round" stroke-linejoin="round"/>
<path d="M8.25001 10.0833C10.2751 10.0833 11.9167 8.44171 11.9167 6.41667C11.9167 4.39162 10.2751 2.75 8.25001 2.75C6.22497 2.75 4.58334 4.39162 4.58334 6.41667C4.58334 8.44171 6.22497 10.0833 8.25001 10.0833Z" stroke="black" stroke-width="2" stroke-linecap="round" stroke-linejoin="round"/>
<path d="M20.1667 19.25V17.4166C20.1661 16.6042 19.8956 15.815 19.3979 15.1729C18.9002 14.5308 18.2033 14.0722 17.4167 13.8691" stroke="black" stroke-width="2" stroke-linecap="round" stroke-linejoin="round"/>
<path d="M14.6667 2.86914C15.4554 3.07108 16.1544 3.52978 16.6537 4.17293C17.1529 4.81607 17.4238 5.60707 17.4238 6.42122C17.4238 7.23538 17.1529 8.02638 16.6537 8.66952C16.1544 9.31266 15.4554 9.77136 14.6667 9.97331" stroke="black" stroke-width="2" stroke-linecap="round" stroke-linejoin="round"/>
</svg>
